{"accessors":[{"bufferView":0,"componentType":5126,"count":685,"max":[0.010295274667441845,0.03974008560180664,0.03525682911276817],"min":[-0.010295274667441845,-0.14462044835090637,-0.05200113356113434],"normalized":false,"type":"VEC3"},{"bufferView":1,"componentType":5126,"count":685,"max":[1.0,0.9999966025352478,0.9894753694534302,1.0],"min":[-0.9985693097114563,-0.9999998211860657,-0.9994716048240662,1.0],"normalized":false,"type":"VEC4"},{"bufferView":2,"componentType":5126,"count":685,"max":[1.0,1.0,1.0],"min":[-1.0,-0.9648860692977905,-1.0],"normalized":false,"type":"VEC3"},{"bufferView":3,"componentType":5126,"count":685,"max":[0.4531933069229126,1.0],"min":[0.0,0.0],"normalized":false,"type":"VEC2"},{"bufferView":4,"componentType":5123,"count":2274,"max":[684],"min":[0],"normalized":false,"type":"SCALAR"},{"bufferView":5,"componentType":5126,"count":2776,"max":[0.023608190938830376,0.0944223552942276,0.12058579921722412],"min":[-0.023608185350894928,-0.0944223552942276,-0.12058573961257935],"normalized":false,"type":"VEC3"},{"bufferView":6,"componentType":5126,"count":2776,"max":[1.0,1.0,1.0,1.0],"min":[-1.0,-1.0,-1.0,-1.0],"normalized":false,"type":"VEC4"},{"bufferView":7,"componentType":5126,"count":2776,"max":[1.0,1.0,1.0],"min":[-1.0,-1.0,-1.0],"normalized":false,"type":"VEC3"},{"bufferView":8,"componentType":5126,"count":2776,"max":[0.9907228946685791,0.9999997615814209],"min":[2.3096799850463867e-07,0.018713533878326416],"normalized":false,"type":"VEC2"},{"bufferView":9,"componentType":5123,"count":8034,"max":[2775],"min":[0],"normalized":false,"type":"SCALAR"},{"bufferView":10,"componentType":5126,"count":141,"max":[0.019557558000087738,0.0038592361379414797,0.0934562161564827],"min":[-0.019557558000087738,-0.0038592175114899874,-0.09345618635416031],"normalized":false,"type":"VEC3"},{"bufferView":11,"componentType":5126,"count":141,"max":[0.985518753528595,0.9081093072891235,0.9588395953178406,1.0],"min":[-0.9999620914459229,-0.5602230429649353,-1.0,1.0],"normalized":false,"type":"VEC4"},{"bufferView":12,"componentType":5126,"count":141,"max":[1.0,1.0,1.0],"min":[-1.0,-1.0,-1.0],"normalized":false,"type":"VEC3"},{"bufferView":13,"componentType":5126,"count":141,"max":[0.6927481293678284,0.9999997615814209],"min":[0.4548845589160919,0.5778325796127319],"normalized":false,"type":"VEC2"},{"bufferView":14,"componentType":5121,"count":372,"max":[140],"min":[0],"normalized":false,"type":"SCALAR"},{"bufferView":15,"componentType":5126,"count":906,"max":[0.013215318322181702,0.011167528107762337,0.019113576039671898],"min":[-0.013215318322181702,-0.011167509481310844,-0.019113576039671898],"normalized":false,"type":"VEC3"},{"bufferView":16,"componentType":5126,"count":906,"max":[1.0,0.9999875426292419,1.0,1.0],"min":[-0.9999915957450867,-1.0,-1.0,-1.0],"normalized":false,"type":"VEC4"},{"bufferView":17,"componentType":5126,"count":906,"max":[1.0,1.0,1.0],"min":[-1.0,-1.0,-1.0],"normalized":false,"type":"VEC3"},{"bufferView":18,"componentType":5126,"count":906,"max":[0.9905456900596619,1.0],"min":[0.0,0.0682341456413269],"normalized":false,"type":"VEC2"},{"bufferView":19,"componentType":5123,"count":2436,"max":[905],"min":[0],"normalized":false,"type":"SCALAR"},{"bufferView":20,"componentType":5126,"count":249,"max":[0.005227319896221161,0.013884040527045727,0.003130293684080243],"min":[-0.005227319896221161,-0.013884021900594234,-0.003130219178274274],"normalized":false,"type":"VEC3"},{"bufferView":21,"componentType":5126,"count":249,"max":[0.7792587876319885,0.9998263716697693,0.9899279475212097,1.0],"min":[-0.984424352645874,-0.9999942183494568,-0.9822884202003479,1.0],"normalized":false,"type":"VEC4"},{"bufferView":22,"componentType":5126,"count":249,"max":[1.0,1.0,1.0],"min":[-1.0,-1.0,-1.0],"normalized":false,"type":"VEC3"},{"bufferView":23,"componentType":5126,"count":249,"max":[0.7227421998977661,0.10579895973205566],"min":[0.0461515448987484,0.054520249366760254],"normalized":false,"type":"VEC2"},{"bufferView":24,"componentType":5121,"count":696,"max":[248],"min":[0],"normalized":false,"type":"SCALAR"},{"bufferView":25,"componentType":5126,"count":53,"max":[0.004029051400721073,0.006744223181158304,0.0064141396433115005],"min":[-0.002105561550706625,-0.006744204554706812,-0.006414102856069803],"normalized":false,"type":"VEC3"},{"bufferView":26,"componentType":5126,"count":53,"max":[0.9877430200576782,0.879786491394043,0.9365413188934326,1.0],"min":[-0.7747346758842468,-0.3969342112541199,-0.5133212208747864,1.0],"normalized":false,"type":"VEC4"},{"bufferView":27,"componentType":5126,"count":53,"max":[1.0,1.0,0.9510594010353088],"min":[-2.1313815523171797e-05,-1.0,-0.9510537385940552],"normalized":false,"type":"VEC3"},{"bufferView":28,"componentType":5126,"count":53,"max":[0.138727605342865,0.07811504602432251],"min":[0.11074726283550262,0.05117058753967285],"normalized":false,"type":"VEC2"},{"bufferView":29,"componentType":5121,"count":144,"max":[52],"min":[0],"normalized":false,"type":"SCALAR"},{"bufferView":30,"componentType":5126,"count":96,"max":[0.01406790316104889,0.00713979871943593,0.009739886038005352],"min":[-0.013470713049173355,-0.0037795945536345243,-0.004014621488749981],"normalized":false,"type":"VEC3"},{"bufferView":31,"componentType":5126,"count":96,"max":[1.0,0.9991980195045471,0.8088508248329163,1.0],"min":[-0.999997615814209,-0.9982379078865051,-0.8850874900817871,1.0],"normalized":false,"type":"VEC4"},{"bufferView":32,"componentType":5126,"count":96,"max":[1.0,1.0,0.9942002296447754],"min":[-1.0,-1.0,-0.9510537385940552],"normalized":false,"type":"VEC3"},{"bufferView":33,"componentType":5126,"count":96,"max":[0.9887623190879822,0.5810389518737793],"min":[0.20025847852230072,0.01838618516921997],"normalized":false,"type":"VEC2"},{"bufferView":34,"componentType":5121,"count":234,"max":[95],"min":[0],"normalized":false,"type":"SCALAR"},{"bufferView":35,"componentType":5126,"count":113,"max":[0.0034507543314248323,0.008647856302559376,0.006651697214692831],"min":[-0.0034507554955780506,-0.022312797605991364,-0.006651697214692831],"normalized":false,"type":"VEC3"},{"bufferView":36,"componentType":5126,"count":113,"max":[0.9992820620536804,0.7011467814445496,0.9902526140213013,1.0],"min":[-0.9346200227737427,-0.999882161617279,-0.9723424911499023,-1.0],"normalized":false,"type":"VEC4"},{"bufferView":37,"componentType":5126,"count":113,"max":[1.0,0.9807933568954468,0.9807927012443542],"min":[-1.0,-0.9807933568954468,-0.9807810187339783],"normalized":false,"type":"VEC3"},{"bufferView":38,"componentType":5126,"count":113,"max":[0.9676982760429382,0.36141353845596313],"min":[0.3829720914363861,0.06009799242019653],"normalized":false,"type":"VEC2"},{"bufferView":39,"componentType":5121,"count":324,"max":[112],"min":[0],"normalized":false,"type":"SCALAR"},{"bufferView":40,"componentType":5126,"count":82,"max":[0.001691836747340858,0.007828494533896446,0.012601988390088081],"min":[-0.0016918366309255362,-0.02624223567545414,-0.011078322306275368],"normalized":false,"type":"VEC3"},{"bufferView":41,"componentType":5126,"count":82,"max":[0.9330070614814758,0.9949837327003479,0.7590878009796143,1.0],"min":[-0.45391523838043213,-0.9999986290931702,-0.9442994594573975,1.0],"normalized":false,"type":"VEC4"},{"bufferView":42,"componentType":5126,"count":82,"max":[1.0,0.9689955711364746,0.9999673962593079],"min":[-1.0,-0.9445719718933105,-0.9997782111167908],"normalized":false,"type":"VEC3"},{"bufferView":43,"componentType":5126,"count":82,"max":[0.9357383847236633,0.5389008522033691],"min":[0.8890712857246399,0.4747803807258606],"normalized":false,"type":"VEC2"},{"bufferView":44,"componentType":5121,"count":204,"max":[81],"min":[0],"normalized":false,"type":"SCALAR"},{"bufferView":45,"componentType":5126,"count":147,"max":[0.020194076001644135,0.0016144425608217716,0.04276973009109497],"min":[-0.0012532842811197042,-0.007973109371960163,-0.042769722640514374],"normalized":false,"type":"VEC3"},{"bufferView":46,"componentType":5126,"count":147,"max":[0.9998521208763123,0.999858558177948,1.0,1.0],"min":[-0.9997687339782715,-0.9861121773719788,-0.9998821020126343,1.0],"normalized":false,"type":"VEC4"},{"bufferView":47,"componentType":5126,"count":147,"max":[1.0,0.9989763498306274,1.0],"min":[-0.9853249788284302,-0.9990217089653015,-1.0],"normalized":false,"type":"VEC3"},{"bufferView":48,"componentType":5126,"count":147,"max":[0.6844930052757263,0.5161885023117065],"min":[0.44824954867362976,0.08110475540161133],"normalized":false,"type":"VEC2"},{"bufferView":49,"componentType":5121,"count":384,"max":[146],"min":[0],"normalized":false,"type":"SCALAR"},{"bufferView":50,"componentType":5126,"count":48,"max":[0.008840227499604225,0.02410477213561535,0.005196156445890665],"min":[-0.002731780055910349,-0.047521866858005524,-0.008407561108469963],"normalized":false,"type":"VEC3"},{"bufferView":51,"componentType":5126,"count":48,"max":[0.999762237071991,0.9323821067810059,0.8641970157623291,1.0],"min":[-0.9798915386199951,-0.9636136889457703,-0.9839078783988953,1.0],"normalized":false,"type":"VEC4"},{"bufferView":52,"componentType":5126,"count":48,"max":[1.0,1.0,1.0],"min":[-1.0,-1.0,-1.0],"normalized":false,"type":"VEC3"},{"bufferView":53,"componentType":5126,"count":48,"max":[0.8992217779159546,0.9999836683273315],"min":[0.7810643911361694,0.9140579700469971],"normalized":false,"type":"VEC2"},{"bufferView":54,"componentType":5121,"count":108,"max":[47],"min":[0],"normalized":false,"type":"SCALAR"},{"bufferView":55,"componentType":5126,"count":4552,"max":[0.03088872693479061,0.0493045337498188,0.21811869740486145],"min":[-0.03088872693479061,-0.04930450767278671,-0.21811874210834503],"normalized":false,"type":"VEC3"},{"bufferView":56,"componentType":5126,"count":4552,"max":[1.0,1.0,1.0,1.0],"min":[-1.0,-1.0,-1.0,-1.0],"normalized":false,"type":"VEC4"},{"bufferView":57,"componentType":5126,"count":4552,"max":[1.0,1.0,1.0],"min":[-1.0,-1.0,-1.0],"normalized":false,"type":"VEC3"},{"bufferView":58,"componentType":5126,"count":4552,"max":[0.9951551556587219,1.0],"min":[0.0,0.014070212841033936],"normalized":false,"type":"VEC2"},{"bufferView":59,"componentType":5123,"count":10626,"max":[4551],"min":[0],"normalized":false,"type":"SCALAR"},{"bufferView":60,"componentType":5126,"count":632,"max":[0.015851441770792007,0.06574295461177826,0.10304635763168335],"min":[-0.015851441770792007,-0.07391185313463211,-0.10304628312587738],"normalized":false,"type":"VEC3"},{"bufferView":61,"componentType":5126,"count":632,"max":[0.999982476234436,1.0,0.9999945163726807,1.0],"min":[-0.9999962449073792,-0.9999561905860901,-0.9987021088600159,-1.0],"normalized":false,"type":"VEC4"},{"bufferView":62,"componentType":5126,"count":632,"max":[1.0,1.0,1.0],"min":[-1.0,-1.0,-1.0],"normalized":false,"type":"VEC3"},{"bufferView":63,"componentType":5126,"count":632,"max":[0.9999986886978149,0.999620795249939],"min":[0.0011777989566326141,0.07688295841217041],"normalized":false,"type":"VEC2"},{"bufferView":64,"componentType":5123,"count":1938,"max":[631],"min":[0],"normalized":false,"type":"SCALAR"}],"asset":{"generator":"Godot Engine v4.7.stable.official@5b4e0cb0fd279832bbdd69fed5354d4e5ad26f88","version":"2.0"},"bufferViews":[{"buffer":0,"byteLength":8220,"byteStride":12,"target":34962},{"buffer":0,"byteLength":10960,"byteOffset":8220,"byteStride":16,"target":34962},{"buffer":0,"byteLength":8220,"byteOffset":19180,"byteStride":12,"target":34962},{"buffer":0,"byteLength":5480,"byteOffset":27400,"byteStride":8,"target":34962},{"buffer":0,"byteLength":4548,"byteOffset":32880,"target":34963},{"buffer":0,"byteLength":33312,"byteOffset":37428,"byteStride":12,"target":34962},{"buffer":0,"byteLength":44416,"byteOffset":70740,"byteStride":16,"target":34962},{"buffer":0,"byteLength":33312,"byteOffset":115156,"byteStride":12,"target":34962},{"buffer":0,"byteLength":22208,"byteOffset":148468,"byteStride":8,"target":34962},{"buffer":0,"byteLength":16068,"byteOffset":170676,"target":34963},{"buffer":0,"byteLength":1692,"byteOffset":186744,"byteStride":12,"target":34962},{"buffer":0,"byteLength":2256,"byteOffset":188436,"byteStride":16,"target":34962},{"buffer":0,"byteLength":1692,"byteOffset":190692,"byteStride":12,"target":34962},{"buffer":0,"byteLength":1128,"byteOffset":192384,"byteStride":8,"target":34962},{"buffer":0,"byteLength":372,"byteOffset":193512,"target":34963},{"buffer":0,"byteLength":10872,"byteOffset":193884,"byteStride":12,"target":34962},{"buffer":0,"byteLength":14496,"byteOffset":204756,"byteStride":16,"target":34962},{"buffer":0,"byteLength":10872,"byteOffset":219252,"byteStride":12,"target":34962},{"buffer":0,"byteLength":7248,"byteOffset":230124,"byteStride":8,"target":34962},{"buffer":0,"byteLength":4872,"byteOffset":237372,"target":34963},{"buffer":0,"byteLength":2988,"byteOffset":242244,"byteStride":12,"target":34962},{"buffer":0,"byteLength":3984,"byteOffset":245232,"byteStride":16,"target":34962},{"buffer":0,"byteLength":2988,"byteOffset":249216,"byteStride":12,"target":34962},{"buffer":0,"byteLength":1992,"byteOffset":252204,"byteStride":8,"target":34962},{"buffer":0,"byteLength":696,"byteOffset":254196,"target":34963},{"buffer":0,"byteLength":636,"byteOffset":254892,"byteStride":12,"target":34962},{"buffer":0,"byteLength":848,"byteOffset":255528,"byteStride":16,"target":34962},{"buffer":0,"byteLength":636,"byteOffset":256376,"byteStride":12,"target":34962},{"buffer":0,"byteLength":424,"byteOffset":257012,"byteStride":8,"target":34962},{"buffer":0,"byteLength":144,"byteOffset":257436,"target":34963},{"buffer":0,"byteLength":1152,"byteOffset":257580,"byteStride":12,"target":34962},{"buffer":0,"byteLength":1536,"byteOffset":258732,"byteStride":16,"target":34962},{"buffer":0,"byteLength":1152,"byteOffset":260268,"byteStride":12,"target":34962},{"buffer":0,"byteLength":768,"byteOffset":261420,"byteStride":8,"target":34962},{"buffer":0,"byteLength":234,"byteOffset":262188,"target":34963},{"buffer":0,"byteLength":1356,"byteOffset":262424,"byteStride":12,"target":34962},{"buffer":0,"byteLength":1808,"byteOffset":263780,"byteStride":16,"target":34962},{"buffer":0,"byteLength":1356,"byteOffset":265588,"byteStride":12,"target":34962},{"buffer":0,"byteLength":904,"byteOffset":266944,"byteStride":8,"target":34962},{"buffer":0,"byteLength":324,"byteOffset":267848,"target":34963},{"buffer":0,"byteLength":984,"byteOffset":268172,"byteStride":12,"target":34962},{"buffer":0,"byteLength":1312,"byteOffset":269156,"byteStride":16,"target":34962},{"buffer":0,"byteLength":984,"byteOffset":270468,"byteStride":12,"target":34962},{"buffer":0,"byteLength":656,"byteOffset":271452,"byteStride":8,"target":34962},{"buffer":0,"byteLength":204,"byteOffset":272108,"target":34963},{"buffer":0,"byteLength":1764,"byteOffset":272312,"byteStride":12,"target":34962},{"buffer":0,"byteLength":2352,"byteOffset":274076,"byteStride":16,"target":34962},{"buffer":0,"byteLength":1764,"byteOffset":276428,"byteStride":12,"target":34962},{"buffer":0,"byteLength":1176,"byteOffset":278192,"byteStride":8,"target":34962},{"buffer":0,"byteLength":384,"byteOffset":279368,"target":34963},{"buffer":0,"byteLength":576,"byteOffset":279752,"byteStride":12,"target":34962},{"buffer":0,"byteLength":768,"byteOffset":280328,"byteStride":16,"target":34962},{"buffer":0,"byteLength":576,"byteOffset":281096,"byteStride":12,"target":34962},{"buffer":0,"byteLength":384,"byteOffset":281672,"byteStride":8,"target":34962},{"buffer":0,"byteLength":108,"byteOffset":282056,"target":34963},{"buffer":0,"byteLength":54624,"byteOffset":282164,"byteStride":12,"target":34962},{"buffer":0,"byteLength":72832,"byteOffset":336788,"byteStride":16,"target":34962},{"buffer":0,"byteLength":54624,"byteOffset":409620,"byteStride":12,"target":34962},{"buffer":0,"byteLength":36416,"byteOffset":464244,"byteStride":8,"target":34962},{"buffer":0,"byteLength":21252,"byteOffset":500660,"target":34963},{"buffer":0,"byteLength":7584,"byteOffset":521912,"byteStride":12,"target":34962},{"buffer":0,"byteLength":10112,"byteOffset":529496,"byteStride":16,"target":34962},{"buffer":0,"byteLength":7584,"byteOffset":539608,"byteStride":12,"target":34962},{"buffer":0,"byteLength":5056,"byteOffset":547192,"byteStride":8,"target":34962},{"buffer":0,"byteLength":3876,"byteOffset":552248,"target":34963}],"buffers":[{"byteLength":556124,"uri":"m4a10.bin"}],"extensionsUsed":["GODOT_single_root"],"images":[{"uri":"textures%2F.png"},{"uri":"textures%2F.png"}],"materials":[{"name":"m4a1","occlusionTexture":{"index":1},"pbrMetallicRoughness":{"baseColorFactor":[1.0,1.0,1.0,1.0],"baseColorTexture":{"index":0},"metallicFactor":0.0,"metallicRoughnessTexture":{"index":1},"roughnessFactor":1.0}}],"meshes":[{"name":"Magazine2","primitives":[{"attributes":{"NORMAL":2,"POSITION":0,"TANGENT":1,"TEXCOORD_0":3},"indices":4,"material":0,"mode":4}]},{"name":"Base2","primitives":[{"attributes":{"NORMAL":7,"POSITION":5,"TANGENT":6,"TEXCOORD_0":8},"indices":9,"material":0,"mode":4}]},{"name":"Charging_Handle2","primitives":[{"attributes":{"NORMAL":12,"POSITION":10,"TANGENT":11,"TEXCOORD_0":13},"indices":14,"material":0,"mode":4}]},{"name":"Sight2","primitives":[{"attributes":{"NORMAL":17,"POSITION":15,"TANGENT":16,"TEXCOORD_0":18},"indices":19,"material":0,"mode":4}]},{"name":"Sight_22","primitives":[{"attributes":{"NORMAL":22,"POSITION":20,"TANGENT":21,"TEXCOORD_0":23},"indices":24,"material":0,"mode":4}]},{"name":"Switch12","primitives":[{"attributes":{"NORMAL":27,"POSITION":25,"TANGENT":26,"TEXCOORD_0":28},"indices":29,"material":0,"mode":4}]},{"name":"Switch22","primitives":[{"attributes":{"NORMAL":32,"POSITION":30,"TANGENT":31,"TEXCOORD_0":33},"indices":34,"material":0,"mode":4}]},{"name":"Firemode_Selector2","primitives":[{"attributes":{"NORMAL":37,"POSITION":35,"TANGENT":36,"TEXCOORD_0":38},"indices":39,"material":0,"mode":4}]},{"name":"Trigger2","primitives":[{"attributes":{"NORMAL":42,"POSITION":40,"TANGENT":41,"TEXCOORD_0":43},"indices":44,"material":0,"mode":4}]},{"name":"Ejector_Lid2","primitives":[{"attributes":{"NORMAL":47,"POSITION":45,"TANGENT":46,"TEXCOORD_0":48},"indices":49,"material":0,"mode":4}]},{"name":"Ejector_22","primitives":[{"attributes":{"NORMAL":52,"POSITION":50,"TANGENT":51,"TEXCOORD_0":53},"indices":54,"material":0,"mode":4}]},{"name":"Barrel2","primitives":[{"attributes":{"NORMAL":57,"POSITION":55,"TANGENT":56,"TEXCOORD_0":58},"indices":59,"material":0,"mode":4}]},{"name":"Stock2","primitives":[{"attributes":{"NORMAL":62,"POSITION":60,"TANGENT":61,"TEXCOORD_0":63},"indices":64,"material":0,"mode":4}]}],"nodes":[{"children":[1],"name":"M4A1","scale":[1.5,1.5,1.5]},{"children":[2,3,4],"name":"M4A12"},{"mesh":0,"name":"Magazine","translation":[-0.0007585657294839621,-0.03365533798933029,-0.05112859606742859]},{"mesh":1,"name":"Base","translation":[0.008349803276360035,-0.04318157210946083,0.01801174506545067]},{"children":[5,6,10,11,12,15,16],"name":"Parts","translation":[-0.00108446239028126,0.010976701974868774,0.004730978514999151]},{"mesh":2,"name":"Charging_Handle","translation":[0.00032589671900495887,0.031073443591594696,0.010484837926924229]},{"children":[7,8,9],"mesh":3,"name":"Sight","translation":[0.00032589671900495887,0.04580720141530037,0.06376899778842926]},{"mesh":4,"name":"Sight_2","translation":[-6.530829705297947e-05,0.011943611316382885,0.0007681245915591717]},{"mesh":5,"name":"Switch1","translation":[0.012750695459544659,-0.00019610262825153768,0.011616898700594902]},{"mesh":6,"name":"Switch2","translation":[-0.003561374731361866,0.0014079195680096745,-0.012564404867589474]},{"mesh":7,"name":"Firemode_Selector","translation":[-0.00881047174334526,-0.027208980172872543,0.05545832961797714]},{"mesh":8,"name":"Trigger","rotation":[-0.1644119769334793,0.0,0.0,0.9863917827606201],"translation":[0.00032589671900495887,-0.043566811829805374,0.018650569021701813]},{"children":[13,14],"name":"Ejector","translation":[0.007180988788604736,0.00538238137960434,-0.04108095169067383]},{"mesh":9,"name":"Ejector_Lid","rotation":[0.0,0.0,-0.25226593017578125,0.9676579236984253],"translation":[0.0034092196729034185,-0.005998932756483555,-0.006633410695940256]},{"mesh":10,"name":"Ejector_2","rotation":[0.7071067690849304,0.0,0.0,0.7071067690849304],"translation":[-0.0034092196729034185,0.005998932756483555,0.006633410695940256]},{"mesh":11,"name":"Barrel","translation":[0.00032589671900495887,0.027762841433286667,-0.32247990369796753]},{"mesh":12,"name":"Stock","translation":[0.00032589671900495887,-0.039250072091817856,0.21519812941551208]}],"samplers":[{"magFilter":9729,"minFilter":9987,"wrapS":10497,"wrapT":10497}],"scene":0,"scenes":[{"nodes":[0]}],"textures":[{"sampler":0,"source":0},{"sampler":0,"source":1}]}